<svg width="177" height="42" viewBox="0 0 177 42" fill="none" xmlns="http://www.w3.org/2000/svg">
<g clip-path="url(#clip0_10:1200)">
<path d="M41.4184 17.7103C39.7732 17.6901 38.147 18.0642 36.676 18.8013C35.205 19.5385 33.9319 20.6173 32.9634 21.9474C30.7067 24.7304 29.5031 28.2197 29.5642 31.8021C29.4507 34.1062 30.2125 36.3681 31.697 38.1339C32.3996 38.9322 33.2727 39.5623 34.2516 39.9777C35.2306 40.393 36.2905 40.5829 37.3528 40.5333C38.9222 40.532 40.4704 40.1709 41.8784 39.4776C43.2864 38.7843 44.5166 37.7774 45.4746 36.5343C47.8826 33.6453 49.1823 29.9928 49.1404 26.232C49.2366 24.0274 48.6042 21.8524 47.3408 20.0431C46.0744 18.5101 44.0749 17.7103 41.4184 17.7103ZM41.5517 34.6205C41.0212 35.1623 40.389 35.5943 39.6914 35.8916C38.9938 36.189 38.2444 36.3459 37.4861 36.3534C36.9781 36.3812 36.4709 36.2868 36.007 36.078C35.5431 35.8693 35.1361 35.5523 34.82 35.1537C34.1221 34.1923 33.785 33.0158 33.8679 31.8307C33.7745 29.2964 34.4989 26.7994 35.9341 24.7086C36.4949 23.8226 37.2732 23.0949 38.1949 22.5949C39.1166 22.0949 40.1509 21.8392 41.1994 21.8522C43.5862 21.8522 44.7827 23.3153 44.789 26.2416C44.8297 29.3473 43.67 32.3489 41.5517 34.6205ZM170.434 28.2316C169.947 28.0633 169.414 28.0867 168.944 28.2972C168.474 28.5076 168.101 28.8893 167.902 29.3646C166.045 34.0301 163.779 36.3534 160.98 36.3534C159.513 36.3534 158.78 35.087 158.78 32.6971C158.962 29.9853 159.357 27.2919 159.961 24.642L160.561 21.8426H166.274C166.749 21.847 167.211 21.6817 167.576 21.3763C167.94 21.0709 168.184 20.6454 168.264 20.1764C168.324 19.8798 168.318 19.5735 168.246 19.2795C168.174 18.9854 168.039 18.7108 167.849 18.4753C167.659 18.2397 167.419 18.049 167.147 17.9168C166.874 17.7846 166.576 17.7141 166.274 17.7103H161.513L162.465 13.0543C162.531 12.7439 162.528 12.4228 162.455 12.1138C162.382 11.8049 162.242 11.5159 162.045 11.2675C161.847 11.0191 161.597 10.8174 161.313 10.6769C161.028 10.5364 160.716 10.4606 160.399 10.455C159.914 10.4477 159.442 10.6103 159.065 10.9147C158.687 11.219 158.428 11.6459 158.333 12.1212L157.104 17.6437H143.774C142.12 17.6287 140.487 18.012 139.012 18.761C137.537 19.51 136.264 20.6029 135.3 21.9474C133.044 24.7304 131.84 28.2197 131.901 31.8021C131.901 32.764 132.013 33.7226 132.234 34.6586C131.804 35.162 131.274 35.5703 130.677 35.8572C130.08 36.1441 129.43 36.3034 128.768 36.3248C128.433 36.3571 128.095 36.3072 127.783 36.1795C127.471 36.0518 127.195 35.85 126.978 35.5917C126.568 34.8655 126.382 34.0336 126.445 33.2018C126.534 30.7996 126.853 28.4115 127.397 26.0702L130.854 9.95983C130.916 9.68913 130.925 9.40876 130.879 9.13473C130.833 8.86071 130.734 8.59839 130.587 8.36276C130.439 8.12714 130.247 7.92281 130.021 7.76146C129.795 7.6001 129.539 7.48488 129.268 7.42236C128.998 7.35984 128.717 7.35125 128.443 7.39709C128.169 7.44292 127.907 7.54228 127.671 7.68949C127.436 7.83671 127.231 8.02889 127.07 8.25506C126.909 8.48124 126.793 8.73698 126.731 9.00769L124.731 18.8434C123.322 18.0004 121.708 17.5622 120.066 17.577C118.416 17.5528 116.781 17.8995 115.283 18.5917C113.785 19.2839 112.462 20.3038 111.411 21.576C109.073 24.4212 107.846 28.0168 107.955 31.6974C107.931 32.8666 108.089 34.0324 108.421 35.1537C107.605 35.8613 106.568 36.2621 105.488 36.2867C105.136 36.3182 104.781 36.2685 104.451 36.1414C104.121 36.0143 103.824 35.8132 103.584 35.5536C103.116 34.8494 102.904 34.0055 102.984 33.1637C103.056 31.5593 103.279 29.9652 103.651 28.4029C103.709 28.1058 103.706 27.7998 103.64 27.5042C103.574 27.2086 103.448 26.9299 103.269 26.6856C103.09 26.4414 102.862 26.2368 102.6 26.085C102.338 25.9332 102.047 25.8374 101.747 25.8036C101.23 25.7374 100.708 25.864 100.279 26.1592C99.8504 26.4544 99.5457 26.8973 99.4233 27.4032C98.8659 29.6841 97.8699 31.8347 96.4907 33.735C96.0085 34.4782 95.36 35.0991 94.5966 35.5485C93.8331 35.998 92.9756 36.2638 92.0918 36.3248C91.6327 36.3158 91.1837 36.1883 90.7883 35.9548C90.393 35.7212 90.0647 35.3895 89.8352 34.9918C89.2195 33.9225 88.916 32.702 88.9592 31.4689C88.8361 28.9739 89.561 26.5107 91.0158 24.4801C91.6252 23.5988 92.4431 22.882 93.3967 22.3936C94.3503 21.9052 95.4099 21.6603 96.4812 21.6808C97.5812 21.6891 98.6686 21.9156 99.6804 22.3473C99.9814 22.4946 100.316 22.5599 100.65 22.5365C100.985 22.5131 101.307 22.4018 101.585 22.214C101.912 22.0185 102.179 21.736 102.355 21.3978C102.531 21.0596 102.609 20.6791 102.582 20.2989C102.554 19.9186 102.421 19.5535 102.198 19.2444C101.975 18.9352 101.67 18.6942 101.318 18.5482C100.785 18.3167 100.23 18.1381 99.6613 18.015C98.6406 17.7297 97.5883 17.573 96.5288 17.5485C94.8939 17.5417 93.2777 17.8967 91.7962 18.5881C90.3146 19.2795 89.0044 20.2901 87.9594 21.5475C86.6967 22.9668 85.7636 24.6478 85.2268 26.4701C83.1606 33.0304 80.5041 36.2296 77.3049 36.2296C76.8478 36.2658 76.3888 36.1873 75.9698 36.001C75.5508 35.8148 75.1849 35.5268 74.9055 35.1632C74.3769 34.4069 74.1186 33.4945 74.1723 32.5733C74.1557 32.2828 74.1781 31.9914 74.239 31.7069C76.167 30.9555 77.8505 29.6871 79.1045 28.0411C80.3224 26.4817 80.9918 24.5639 81.0088 22.5853C81.0088 19.2528 79.2187 17.5865 75.5529 17.5865C74.2924 17.5805 73.0432 17.8249 71.8778 18.3054C70.7124 18.7859 69.6541 19.4931 68.7641 20.3859L71.0302 9.91223C71.094 9.60559 71.0885 9.28859 71.0142 8.98435C70.9399 8.6801 70.7986 8.39628 70.6006 8.1536C70.4026 7.91092 70.153 7.71549 69.8698 7.58157C69.5867 7.44765 69.2773 7.37862 68.9641 7.37951C68.4793 7.37222 68.0072 7.53486 67.6298 7.83922C67.2524 8.14358 66.9935 8.57045 66.8979 9.04577L60.709 37.9435C60.6435 38.2495 60.6475 38.5663 60.7206 38.8706C60.7936 39.1749 60.934 39.459 61.1313 39.7019C61.3285 39.9449 61.5777 40.1405 61.8606 40.2745C62.1434 40.4085 62.4526 40.4774 62.7656 40.4762C63.2437 40.4611 63.702 40.2814 64.0629 39.9674C64.4238 39.6533 64.6651 39.2243 64.7461 38.7528L66.6504 29.8978C66.978 28.7224 67.4246 27.5834 67.9834 26.4986C68.6843 25.2522 69.6377 24.1658 70.7827 23.3089C71.9433 22.3005 73.4347 21.7547 74.9721 21.776C75.1896 21.7439 75.4116 21.7632 75.6203 21.8323C75.829 21.9013 76.0186 22.0182 76.1741 22.1737C76.3295 22.3291 76.4464 22.5188 76.5155 22.7275C76.5845 22.9362 76.6038 23.1581 76.5717 23.3756C76.518 24.0737 76.311 24.7514 75.9654 25.3603C75.6198 25.9693 75.1441 26.4945 74.5722 26.8985C73.361 27.9901 71.8596 28.7077 70.2495 28.9647C70.1162 30.2311 70.0495 31.1642 70.0495 31.6974C69.9471 33.9883 70.5994 36.2495 71.9062 38.1339C72.5378 38.9276 73.3537 39.555 74.2829 39.9615C75.2122 40.3681 76.2267 40.5415 77.2382 40.4667C78.6409 40.4539 80.0225 40.1234 81.2791 39.5C82.5357 38.8766 83.6348 37.9766 84.4936 36.8675L85.2934 35.9154C85.5948 36.6914 86.0227 37.4121 86.5598 38.0482C87.1995 38.8342 88.0137 39.4602 88.9376 39.8767C89.8615 40.2932 90.8697 40.4887 91.8823 40.4476C94.7387 40.4476 97.1477 39.1146 99.1472 36.3153C100.004 39.1146 102.004 40.4476 105.336 40.4476C107.208 40.4241 109.014 39.7548 110.449 38.5528C111.736 39.7588 113.447 40.4059 115.21 40.3524C118.066 40.3524 120.466 39.0194 122.465 36.2201C123.332 39.0194 125.322 40.3524 128.654 40.3524C130.769 40.3737 132.812 39.587 134.367 38.1529C135.06 38.8784 135.898 39.4493 136.827 39.8284C137.755 40.2074 138.754 40.386 139.756 40.3524C141.326 40.3525 142.875 39.992 144.283 39.2986C145.691 38.6053 146.921 37.5976 147.878 36.3534C150.275 33.4769 151.574 29.8431 151.544 26.0987C151.573 24.5753 151.301 23.061 150.744 21.6427H156.276L155.743 24.0421C155.063 26.8182 154.617 29.6465 154.41 32.4972C154.41 37.6864 156.543 40.3524 160.732 40.3524C165.493 40.3524 169.054 37.1532 171.587 30.8309C171.697 30.5864 171.755 30.3212 171.756 30.0527C171.758 29.7842 171.702 29.5185 171.593 29.273C171.484 29.0275 171.325 28.8079 171.125 28.6284C170.926 28.4489 170.69 28.3137 170.434 28.2316ZM123.227 25.6988C122.494 29.3646 121.323 32.0306 119.961 33.7635C118.6 35.4964 117.038 36.3534 115.438 36.3534C114.978 36.3441 114.528 36.2166 114.131 35.9832C113.734 35.7498 113.404 35.4182 113.172 35.0204C112.572 33.9695 112.272 32.7738 112.306 31.5641C112.182 29.0675 112.91 26.603 114.372 24.5753C114.86 23.8262 115.504 23.1919 116.261 22.7164C117.018 22.2409 117.869 21.9356 118.756 21.8215C119.642 21.7074 120.543 21.7873 121.395 22.0556C122.248 22.3239 123.032 22.7743 123.694 23.3756L123.227 25.6988ZM146.402 30.6976C145.757 32.0732 144.952 33.3676 144.003 34.5538C143.48 35.1103 142.851 35.5562 142.152 35.8653C141.454 36.1744 140.701 36.3404 139.937 36.3534C139.431 36.3813 138.925 36.2868 138.462 36.078C138 35.8692 137.595 35.5521 137.281 35.1537C136.583 34.1923 136.246 33.0158 136.329 31.8307C136.236 29.298 136.957 26.8023 138.385 24.7086C138.952 23.8282 139.732 23.1049 140.652 22.6056C141.572 22.1064 142.604 21.8472 143.651 21.8522C146.05 21.8522 147.25 23.3153 147.25 26.2416C147.204 27.7666 146.901 29.2731 146.355 30.6976H146.402ZM59.4616 7.38903C58.9769 7.38174 58.5048 7.54439 58.1274 7.84874C57.75 8.1531 57.4911 8.57997 57.3955 9.05529L51.2065 37.953C51.1411 38.259 51.145 38.5758 51.2181 38.8801C51.2912 39.1844 51.4315 39.4685 51.6288 39.7114C51.8261 39.9544 52.0753 40.15 52.3581 40.284C52.641 40.418 52.9502 40.4869 53.2632 40.4857C53.7479 40.493 54.22 40.3303 54.5974 40.026C54.9748 39.7216 55.2337 39.2948 55.3293 38.8194L61.5278 9.92175C61.5863 9.61572 61.5769 9.3006 61.5005 8.99855C61.4241 8.6965 61.2824 8.41486 61.0855 8.17344C60.8885 7.93202 60.6411 7.73669 60.3606 7.60117C60.08 7.46565 59.7732 7.39324 59.4616 7.38903ZM15.1772 1.00012C11.1566 1.01517 7.30497 2.61903 4.46194 5.46206C1.61891 8.30509 0.0150494 12.1567 1.04035e-07 16.1774C-0.000193515 17.8537 0.269873 19.5191 0.799804 21.1095C0.990077 21.63 1.3722 22.058 1.86788 22.3058C2.36356 22.5537 2.93526 22.6026 3.46582 22.4425C3.98075 22.2468 4.40154 21.8619 4.64221 21.3664C4.88289 20.8709 4.92528 20.3022 4.76074 19.7765C4.30994 18.5397 4.10928 17.2257 4.17041 15.9108C4.23338 13.7881 4.91226 11.7295 6.12437 9.98573C7.33647 8.24199 9.02948 6.88834 10.9972 6.08966C12.9649 5.29098 15.1224 5.08173 17.207 5.4874C19.2915 5.89307 21.2131 6.89615 22.7377 8.37447C24.2623 9.85279 25.3241 11.7426 25.7938 13.8136C26.2635 15.8846 26.1208 18.0476 25.3832 20.039C24.6455 22.0304 23.3447 23.7643 21.6391 25.0295C19.9335 26.2948 17.8968 27.0368 15.7771 27.1651C15.7771 27.1651 13.6538 27.2984 12.5874 27.4317C12.1964 27.4869 11.8086 27.5632 11.4258 27.6603C11.3983 27.6809 11.3643 27.6909 11.33 27.6885C11.2957 27.686 11.2634 27.6713 11.2391 27.647C11.2148 27.6227 11.2001 27.5904 11.1976 27.5561C11.1952 27.5218 11.2052 27.4878 11.2258 27.4603L11.5591 25.6608L13.5586 16.6058C13.6735 16.0667 13.5695 15.504 13.2695 15.0415C12.9695 14.579 12.4981 14.2547 11.959 14.1398C11.4198 14.0249 10.8571 14.1288 10.3947 14.4288C9.93218 14.7288 9.60781 15.2002 9.49292 15.7394C9.49292 15.7394 4.73218 37.8482 4.73218 38.0482C4.66662 38.3149 4.6562 38.5923 4.70155 38.8632C4.7469 39.1341 4.84707 39.3929 4.99593 39.6238C5.14479 39.8547 5.3392 40.0527 5.56726 40.2058C5.79532 40.3589 6.05223 40.4639 6.32226 40.5143C6.58962 40.5783 6.86721 40.5873 7.13817 40.5408C7.40913 40.4942 7.66779 40.3931 7.89844 40.2435C8.12909 40.0939 8.32692 39.8989 8.4799 39.6705C8.63287 39.442 8.73781 39.1849 8.78833 38.9146C8.85498 38.648 9.45483 35.7154 9.45483 35.7154C9.67579 34.636 10.2223 33.6502 11.0208 32.8909C11.8192 32.1316 12.8312 31.6353 13.9204 31.4689C14.3774 31.4022 16.3103 31.2689 16.3103 31.2689C20.1729 30.9119 23.7519 29.0886 26.3115 26.1739C28.871 23.2591 30.2166 19.4745 30.0715 15.5982C29.9264 11.7219 28.3016 8.04843 25.5313 5.33321C22.761 2.61799 19.0557 1.06735 15.1772 1.00012V1.00012Z" fill="#1E1E1E"/>
<path d="M174.852 35.9535C174.524 35.887 174.186 35.8859 173.857 35.9505C173.529 36.0151 173.216 36.144 172.937 36.3298C172.658 36.5156 172.419 36.7547 172.233 37.0332C172.047 37.3118 171.918 37.6244 171.853 37.953C171.783 38.2816 171.779 38.621 171.842 38.9511C171.904 39.2813 172.033 39.5954 172.219 39.8751C172.406 40.1547 172.646 40.3941 172.927 40.5791C173.207 40.7641 173.522 40.891 173.853 40.9523C174.181 41.027 174.521 41.0339 174.852 40.9727C175.183 40.9114 175.498 40.7833 175.778 40.5962C176.058 40.409 176.297 40.1667 176.48 39.8842C176.663 39.6016 176.786 39.2847 176.842 38.9528C176.955 38.2935 176.811 37.6162 176.442 37.059C176.072 36.5017 175.503 36.1064 174.852 35.9535Z" fill="#E6007A"/>
</g>
<defs>
<clipPath id="clip0_10:1200">
<rect width="176.871" height="42" fill="white"/>
</clipPath>
</defs>
</svg>
