<svg width="20" height="17" viewBox="0 0 20 17" fill="none" xmlns="http://www.w3.org/2000/svg">
<path d="M19.97 2.46378C19.4539 3.15213 18.8301 3.75258 18.1227 4.24195C18.1227 4.42177 18.1227 4.60158 18.1227 4.79139C18.1284 8.0568 16.8241 11.1879 14.5021 13.4828C12.1802 15.7777 9.03487 17.0443 5.77132 16.9988C3.88458 17.0051 2.02201 16.5743 0.329503 15.7401C0.238243 15.7003 0.179382 15.61 0.179728 15.5103V15.4005C0.179728 15.257 0.29596 15.1407 0.439338 15.1407C2.29395 15.0796 4.0824 14.4366 5.55165 13.3026C3.87296 13.2688 2.36258 12.2744 1.66749 10.7453C1.63238 10.6617 1.64331 10.5659 1.69634 10.4925C1.74936 10.419 1.83681 10.3785 1.9271 10.3856C2.43729 10.4369 2.95257 10.3894 3.44482 10.2458C1.59169 9.86109 0.199276 8.32265 -1.07469e-06 6.43969C-0.00708364 6.34936 0.033396 6.26187 0.106814 6.20882C0.180233 6.15577 0.275977 6.14483 0.359458 6.17996C0.856756 6.39939 1.39359 6.51496 1.93708 6.51961C0.313308 5.45384 -0.388056 3.42672 0.229653 1.58469C0.293416 1.4057 0.446604 1.27347 0.632924 1.2366C0.819245 1.19972 1.01121 1.26365 1.13829 1.40487C3.32947 3.73695 6.34019 5.12662 9.53565 5.28088C9.4538 4.95427 9.41354 4.61862 9.41583 4.28191C9.44572 2.51636 10.5381 0.943567 12.1817 0.299861C13.8252 -0.343846 15.6945 0.0689274 16.9145 1.34494C17.7462 1.18651 18.5502 0.907164 19.301 0.515789C19.356 0.481454 19.4257 0.481454 19.4807 0.515789C19.515 0.57081 19.515 0.640583 19.4807 0.695604C19.117 1.52835 18.5027 2.2268 17.7233 2.69355C18.4058 2.6144 19.0763 2.45341 19.7203 2.21404C19.7746 2.17713 19.8458 2.17713 19.9001 2.21404C19.9455 2.23482 19.9794 2.27457 19.9929 2.32269C20.0064 2.37081 19.998 2.42242 19.97 2.46378Z" fill="#1DA1F2"/>
</svg>
